<svg xmlns="http://www.w3.org/2000/svg" width="82.703" height="39.699" viewBox="0 0 82.703 39.699"><defs><style>.a{fill:#2bbd61;}</style></defs><path class="a" d="M127.47,77.118a5.835,5.835,0,1,0,5.835,5.835A5.835,5.835,0,0,0,127.47,77.118Zm1.577,8.494a1.823,1.823,0,0,1-.836.458.239.239,0,0,0-.173.233v.34a.243.243,0,0,1-.243.243h-.5a.243.243,0,0,1-.243-.243v-.328a.246.246,0,0,0-.195-.237,1.882,1.882,0,0,1-.935-.514,1.962,1.962,0,0,1-.513-1.419v-.3h1.064v.3a.977.977,0,0,0,.265.741,1.071,1.071,0,0,0,.784.261,1.051,1.051,0,0,0,.711-.226.668.668,0,0,0,.244-.546.657.657,0,0,0-.191-.5,2.407,2.407,0,0,0-.881-.453,3.1,3.1,0,0,1-1.357-.735,1.679,1.679,0,0,1-.435-1.189,1.7,1.7,0,0,1,.476-1.241,1.772,1.772,0,0,1,.806-.462.238.238,0,0,0,.17-.231v-.391a.243.243,0,0,1,.243-.243h.507a.243.243,0,0,1,.243.243v.388a.249.249,0,0,0,.171.241,1.675,1.675,0,0,1,.823.535,2.15,2.15,0,0,1,.446,1.418v.3h-1.06v-.3a1.126,1.126,0,0,0-.244-.777.809.809,0,0,0-.645-.26.924.924,0,0,0-.661.211.723.723,0,0,0-.217.559.662.662,0,0,0,.19.515,2.462,2.462,0,0,0,.864.433,4.542,4.542,0,0,1,1.068.482,1.719,1.719,0,0,1,.559.61,1.767,1.767,0,0,1,.189.836A1.672,1.672,0,0,1,129.046,85.612Z" transform="translate(-72.487 -61.422)"/><g transform="translate(0 0)"><path class="a" d="M46.742,78.6a1.191,1.191,0,0,0,.409-2.31,9.967,9.967,0,0,1-2.163-1.105,12.3,12.3,0,0,0-6.916-2.12h-5.8V55.831h3.995A18.18,18.18,0,0,0,46.486,52.7a15.862,15.862,0,0,1,2.61-1.429l9.845-4.2a6.56,6.56,0,0,1,6.736.963l6.962,5.714a.961.961,0,0,1,.133,1.355l-.038.046a3.419,3.419,0,0,1-4.806.473l-5.963-4.893a1.191,1.191,0,0,0-1.511,1.841l4.967,4.077h-5.8a1.191,1.191,0,0,0-1.191,1.191,2.179,2.179,0,0,1-2.176,2.176A1.191,1.191,0,0,0,55.06,61.2v9.474a1.191,1.191,0,0,0,1.191,1.191,2.179,2.179,0,0,1,2.176,2.177,1.191,1.191,0,0,0,1.191,1.191H87.24a1.191,1.191,0,0,0,1.191-1.191,2.179,2.179,0,0,1,2.177-2.177A1.191,1.191,0,0,0,91.8,70.674V61.2a1.191,1.191,0,0,0-1.191-1.191,2.179,2.179,0,0,1-2.177-2.176,1.191,1.191,0,0,0-1.191-1.191H74.586l.027-.033A3.344,3.344,0,0,0,74.15,51.9l-6.962-5.715a8.945,8.945,0,0,0-9.182-1.311l-9.848,4.2a18.308,18.308,0,0,0-3.006,1.645,15.807,15.807,0,0,1-8.89,2.725H32.266v-3a1.191,1.191,0,0,0-1.191-1.191H19.638a1.191,1.191,0,0,0-1.191,1.191V78.777a1.191,1.191,0,0,0,1.191,1.191H31.076a1.191,1.191,0,0,0,1.191-1.191V75.445h5.8a9.925,9.925,0,0,1,5.582,1.711,12.361,12.361,0,0,0,2.68,1.37A1.2,1.2,0,0,0,46.742,78.6ZM89.417,62.232V69.64a4.576,4.576,0,0,0-3.21,3.21H60.652a4.577,4.577,0,0,0-3.209-3.21V62.232a4.577,4.577,0,0,0,3.209-3.209H86.208A4.578,4.578,0,0,0,89.417,62.232ZM29.885,77.586H20.828V51.641h9.057Z" transform="translate(-18.447 -44.163)"/><path class="a" d="M115.648,64.362h13.558v21.81h-41.4V64.362h4.1a1.191,1.191,0,0,0,0-2.381H86.617a1.191,1.191,0,0,0-1.191,1.191V87.363a1.191,1.191,0,0,0,1.191,1.191H130.4a1.191,1.191,0,0,0,1.191-1.191V63.172a1.191,1.191,0,0,0-1.191-1.191H115.648a1.191,1.191,0,1,0,0,2.381Z" transform="translate(-53.524 -53.495)"/><path class="a" d="M96.358,122.513a1.191,1.191,0,1,0,0,2.381h7.83a1.191,1.191,0,1,0,0-2.381Z" transform="translate(-58.626 -85.195)"/><path class="a" d="M144.352,97.1a1.191,1.191,0,0,0,1.191,1.191H165.9a1.191,1.191,0,0,0,1.191-1.191V72.914a1.191,1.191,0,1,0-2.381,0v23H145.543A1.191,1.191,0,0,0,144.352,97.1Z" transform="translate(-84.384 -58.597)"/></g></svg>