<svg xmlns="http://www.w3.org/2000/svg" width="72.081" height="55.87" viewBox="0 0 72.081 55.87"><defs><style>.a{fill:#2bbd61;}</style></defs><path class="a" d="M96.148,67.173l-17.33-17.33a1.485,1.485,0,0,0-2.1,0L69.166,57.4a1.485,1.485,0,0,0,0,2.1l.424.424-4.343,4.343h-5.6a3.712,3.712,0,0,0-2.5.96l-2.77-.9-3.157-3.157.694-.694a1.483,1.483,0,0,0,0-2.1l-7.556-7.556a1.483,1.483,0,0,0-2.1,0l-17.33,17.33a1.485,1.485,0,0,0,0,2.1l7.556,7.556a1.485,1.485,0,0,0,2.1,0l.679-.679,4.211,4.211,1.533,2.736a.87.87,0,1,0,1.519-.851l-1.592-2.841a.87.87,0,0,0-.144-.19l-4.3-4.3L49.993,62.4l3.3,3.3a.872.872,0,0,0,.348.213l2.112.683-6.168,6.168a3.589,3.589,0,1,0,5.045,5.105l6-6L75.885,87.128a.869.869,0,0,0,.616.255.81.81,0,0,0,.092,0,.871.871,0,0,0,.639-.392l5.016-7.745,3.33-3.33.916.916h0a1.486,1.486,0,0,0,2.1,0l7.556-7.555a1.484,1.484,0,0,0,0-2.1ZM26.349,69.2,43.314,52.237,50.5,59.428,33.54,76.393Zm54.6,8.872a.873.873,0,0,0-.115.142l-4.481,6.918L61.25,70.03a.871.871,0,0,0-1.231,0L53.4,76.645a1.851,1.851,0,0,1-2.856-.3A1.863,1.863,0,0,1,50.821,74l7.411-7.411a1.989,1.989,0,0,1,1.416-.586h5.961a.871.871,0,0,0,.616-.255l4.6-4.6,6.764,6.763,6.764,6.764ZM87.726,75.6h0Zm-.182-.182-1.349-1.349h0l-9.023-9.023-6.593-6.593,7.191-7.191L94.735,68.222Z" transform="translate(-24.501 -49.41)"/><path class="a" d="M85.783,160.406a3.548,3.548,0,0,0-2.371-5.378,3.553,3.553,0,0,0-5.717-4.048l-.134.134a3.548,3.548,0,0,0-5.955-1.639l-2.7,2.7a3.551,3.551,0,0,0,2.114,6.042,3.552,3.552,0,0,0,3.388,4.63c.085,0,.17-.006.255-.012a3.54,3.54,0,0,0,4.411,3.7,3.552,3.552,0,0,0,6.056,2.252l2.4-2.4a3.559,3.559,0,0,0,0-5.027A3.521,3.521,0,0,0,85.783,160.406Zm-15.644-7,2.7-2.7a1.814,1.814,0,0,1,2.565,2.565l-2.7,2.7a1.814,1.814,0,0,1-2.565-2.565Zm2.988,7.17a1.814,1.814,0,0,1,0-2.565l5.8-5.8a1.814,1.814,0,0,1,2.565,2.565h0l-5.8,5.8A1.816,1.816,0,0,1,73.127,160.574Zm3.8,3.8a1.816,1.816,0,0,1,0-2.565l4.566-4.566a1.814,1.814,0,0,1,2.565,2.565l-4.566,4.566A1.816,1.816,0,0,1,76.924,164.37Zm9.373.784-2.4,2.4a1.814,1.814,0,0,1-2.565-2.565l2.4-2.4a1.814,1.814,0,0,1,2.565,2.565Z" transform="translate(-52.767 -113.952)"/><path class="a" d="M146.273,161.722a.87.87,0,0,0,0,1.231,1.814,1.814,0,1,1-2.565,2.565l-3.049-3.048a.87.87,0,1,0-1.231,1.231l2.216,2.216h0a1.814,1.814,0,0,1-2.565,2.565l-2.649-2.649a.87.87,0,1,0-1.231,1.231l2.189,2.189,0,0a1.814,1.814,0,1,1-2.565,2.565l-2.314-2.312a.871.871,0,0,0-1.231,1.232l.277.276h0l1.335,1.334a1.814,1.814,0,0,1-2.565,2.565l-.86-.86a.87.87,0,0,0-1.231,1.231l.86.86a3.552,3.552,0,0,0,6.051-2.189,3.547,3.547,0,0,0,4.508-3.275,3.582,3.582,0,0,0,.707.07,3.551,3.551,0,0,0,3.529-3.14,3.554,3.554,0,0,0,3.613-5.893A.87.87,0,0,0,146.273,161.722Z" transform="translate(-91.947 -122.446)"/></svg>