<svg xmlns="http://www.w3.org/2000/svg" width="60.325" height="60.325" viewBox="0 0 60.325 60.325"><defs><style>.a{fill:#2bbd61;}</style></defs><path class="a" d="M149.438,27.877a30.167,30.167,0,0,0-25.411,46.417l-4.054,11.362a1.387,1.387,0,0,0,1.773,1.772l11.335-4.044a30.163,30.163,0,1,0,16.357-55.506Zm0,57.55A27.242,27.242,0,0,1,134.05,80.7a1.386,1.386,0,0,0-1.247-.159l-9.234,3.295,3.3-9.256a1.386,1.386,0,0,0-.156-1.242,27.39,27.39,0,1,1,22.724,12.093Z" transform="translate(-119.276 -27.877)"/><path class="a" d="M173.238,102.207h-4.525a1.055,1.055,0,0,0-1.055,1.055v1.883a3.318,3.318,0,0,0,3.318,3.318h0a3.318,3.318,0,0,0,3.318-3.318v-1.883A1.056,1.056,0,0,0,173.238,102.207Z" transform="translate(-140.814 -60.966)"/><path class="a" d="M173.185,81.566a.556.556,0,0,0-.55.556v9.288a.422.422,0,0,0,.422.422h.268a.422.422,0,0,0,.422-.422V82.122a.556.556,0,0,0-.562-.556Z" transform="translate(-143.029 -51.777)"/><path class="a" d="M165.188,60.388a9.222,9.222,0,0,0-5.614,15.539,9.369,9.369,0,0,1,2.627,6.04.424.424,0,0,0,.419.411h0a.422.422,0,0,0,.422-.422V71.139a5.627,5.627,0,0,1-.632-.517,1.374,1.374,0,0,1-.158-1.856,1.319,1.319,0,0,1,1.895-.134,3.172,3.172,0,0,0,1.116.725,2.832,2.832,0,0,0,2.9-.67,1.347,1.347,0,0,1,1.75-.117,1.32,1.32,0,0,1,.124,1.975,5.477,5.477,0,0,1-.609.518V81.956a.422.422,0,0,0,.422.422h0a.422.422,0,0,0,.419-.411,9.321,9.321,0,0,1,2.616-6.028,9.223,9.223,0,0,0-7.7-15.551Z" transform="translate(-136.076 -42.324)"/><path class="a" d="M144.884,75.964h0a.984.984,0,0,1,.984-.984h2.43a.984.984,0,0,1,.984.984h0a.984.984,0,0,1-.984.984h-2.43A.984.984,0,0,1,144.884,75.964Z" transform="translate(-130.676 -48.845)"/><path class="a" d="M194.465,75.964h0a.984.984,0,0,1,.984-.984h2.43a.984.984,0,0,1,.984.984h0a.984.984,0,0,1-.984.984h-2.43A.984.984,0,0,1,194.465,75.964Z" transform="translate(-152.747 -48.845)"/><path class="a" d="M172.848,52.4h0a.984.984,0,0,1-.984-.984v-2.43a.984.984,0,0,1,.984-.984h0a.984.984,0,0,1,.984.984v2.43A.985.985,0,0,1,172.848,52.4Z" transform="translate(-142.686 -36.835)"/><path class="a" d="M153.075,56.191h0a.984.984,0,0,1,1.392,0l1.718,1.718a.984.984,0,0,1,0,1.392h0a.984.984,0,0,1-1.392,0l-1.718-1.718A.984.984,0,0,1,153.075,56.191Z" transform="translate(-134.193 -40.353)"/><path class="a" d="M188.133,91.249h0a.984.984,0,0,1,1.392,0l1.718,1.718a.984.984,0,0,1,0,1.392h0a.984.984,0,0,1-1.392,0l-1.718-1.718A.985.985,0,0,1,188.133,91.249Z" transform="translate(-149.8 -55.959)"/><path class="a" d="M153.075,94.359h0a.984.984,0,0,1,0-1.392l1.718-1.718a.984.984,0,0,1,1.392,0h0a.984.984,0,0,1,0,1.392l-1.718,1.718A.984.984,0,0,1,153.075,94.359Z" transform="translate(-134.193 -55.959)"/><path class="a" d="M188.133,59.3h0a.984.984,0,0,1,0-1.392l1.718-1.718a.984.984,0,0,1,1.392,0h0a.984.984,0,0,1,0,1.392L189.525,59.3A.985.985,0,0,1,188.133,59.3Z" transform="translate(-149.8 -40.353)"/></svg>