<svg xmlns="http://www.w3.org/2000/svg" width="44.824" height="62.932" viewBox="0 0 44.824 62.932"><defs><style>.a{fill:#2bbd61;}</style></defs><path class="a" d="M101.02,208.39H62.906a2.555,2.555,0,0,1-2.214-1.278,2.556,2.556,0,0,0,2.214,3.833h38.115a2.556,2.556,0,0,0,2.214-3.833A2.555,2.555,0,0,1,101.02,208.39Z" transform="translate(-59.551 -148.812)"/><path class="a" d="M99.319,80.853h-.874V69.9a3.432,3.432,0,0,0-3.428-3.427H92.693V65.192a3,3,0,0,0-3-3H86.1a68.406,68.406,0,0,1-2.448-9.583,16.927,16.927,0,0,0,5.031-6.089C90.2,46.116,99.4,43.308,99.4,35.323V32.8a2.435,2.435,0,0,0-2.432-2.432h-3.1a36.155,36.155,0,0,0,.391-4.01,1.675,1.675,0,0,0-1.675-1.732H67.94a1.675,1.675,0,0,0-1.675,1.732,36.153,36.153,0,0,0,.391,4.01h-3.1A2.435,2.435,0,0,0,61.119,32.8v2.519c0,7.986,9.207,10.794,10.725,11.2a16.93,16.93,0,0,0,5.031,6.089A68.417,68.417,0,0,1,74.428,62.2h-3.6a3,3,0,0,0-3,3v1.276H65.506A3.432,3.432,0,0,0,62.078,69.9V80.853H61.2a3.354,3.354,0,1,0,0,6.708H99.319a3.354,3.354,0,1,0,0-6.708ZM96.972,31.969a.836.836,0,0,1,.835.835v2.519c0,5.522-5.374,8.2-8.122,9.205A53.894,53.894,0,0,0,93.6,31.969h3.37ZM62.716,35.323V32.8a.836.836,0,0,1,.835-.835h3.37a53.9,53.9,0,0,0,3.917,12.559C68.09,43.521,62.716,40.845,62.716,35.323Zm5.144-9.018a.073.073,0,0,1,.021-.054.079.079,0,0,1,.058-.024H92.584a.079.079,0,0,1,.058.024.073.073,0,0,1,.021.054c-.311,8.814-4.9,22.246-10.277,25.217l-.007,0a5.394,5.394,0,0,1-.522.254l-.02.009q-.119.049-.238.091l-.039.013c-.077.026-.153.05-.229.072l-.037.01c-.08.022-.159.042-.238.058l-.009,0a3.8,3.8,0,0,1-1.568,0l-.009,0c-.079-.017-.158-.036-.238-.058l-.037-.01c-.076-.022-.153-.046-.229-.072l-.039-.013c-.079-.028-.158-.058-.238-.091l-.02-.009a5.394,5.394,0,0,1-.522-.254l-.007,0C72.764,48.551,68.171,35.119,67.86,26.305Zm10.5,27.071.056.018q.2.069.394.124c.035.01.07.017.1.026.113.029.226.055.34.076l.117.02q.176.03.355.048l.084.009c.149.012.3.021.448.021s.3-.009.448-.021l.084-.009q.178-.018.355-.048l.117-.02c.114-.022.227-.047.34-.076.035-.009.07-.016.1-.026q.2-.055.394-.124l.056-.018a70.033,70.033,0,0,0,2.251,8.82h-8.3A70.226,70.226,0,0,0,78.364,53.376ZM69.428,65.192a1.4,1.4,0,0,1,1.4-1.4H89.7a1.4,1.4,0,0,1,1.4,1.4v1.276H69.428Zm-5.752,4.7a1.832,1.832,0,0,1,1.83-1.83H95.017a1.832,1.832,0,0,1,1.83,1.83V80.852H63.676ZM99.319,85.964H61.2a1.757,1.757,0,1,1,0-3.514H99.319a1.757,1.757,0,0,1,0,3.514Z" transform="translate(-57.85 -24.629)"/><path class="a" d="M120.687,48.97l-2.709,1.968a.69.69,0,0,0-.25.771l1.034,3.184a.689.689,0,0,1-1.061.771L114.993,53.7a.689.689,0,0,0-.811,0l-2.709,1.968a.689.689,0,0,1-1.061-.771l1.034-3.184a.69.69,0,0,0-.25-.771l-2.709-1.968a.689.689,0,0,1,.405-1.247h3.348a.689.689,0,0,0,.656-.476l1.034-3.184a.69.69,0,0,1,1.311,0l1.034,3.184a.689.689,0,0,0,.656.476h3.348A.69.69,0,0,1,120.687,48.97Z" transform="translate(-92.116 -37.53)"/></svg>