<svg xmlns="http://www.w3.org/2000/svg" width="70.565" height="49.12" viewBox="0 0 70.565 49.12"><defs><style>.a{fill:#2bbd61;}</style></defs><rect class="a" width="19.753" height="6.443" transform="translate(0.975 41.703)"/><rect class="a" width="19.753" height="6.443" transform="translate(25.406 41.703)"/><rect class="a" width="19.753" height="6.443" transform="translate(49.837 41.703)"/><g transform="translate(0)"><path class="a" d="M53.484,163.1a6.563,6.563,0,1,0-10.266,0,6.9,6.9,0,0,0-5.718,6.788v9.162a.975.975,0,0,0,.975.975H58.228a.975.975,0,0,0,.975-.975v-9.162A6.9,6.9,0,0,0,53.484,163.1Zm3.769,14.975h-17.8v-8.187a4.944,4.944,0,0,1,4.938-4.938H45.8a.975.975,0,0,0,.446-1.841,4.614,4.614,0,1,1,4.218,0,.975.975,0,0,0,.446,1.841h1.408a4.944,4.944,0,0,1,4.938,4.938Z" transform="translate(-37.5 -130.903)"/><path class="a" d="M116.151,163.1a6.563,6.563,0,1,0-10.266,0,6.9,6.9,0,0,0-5.718,6.788v9.162a.975.975,0,0,0,.975.975h19.753a.975.975,0,0,0,.975-.975v-9.162A6.9,6.9,0,0,0,116.151,163.1Zm3.769,14.975h-17.8v-8.187a4.944,4.944,0,0,1,4.938-4.938h1.408a.975.975,0,0,0,.446-1.841,4.613,4.613,0,1,1,4.218,0,.975.975,0,0,0,.446,1.841h1.408a4.944,4.944,0,0,1,4.938,4.938Z" transform="translate(-75.736 -130.903)"/><path class="a" d="M178.817,163.1a6.563,6.563,0,1,0-10.266,0,6.9,6.9,0,0,0-5.718,6.788v9.162a.975.975,0,0,0,.975.975h19.753a.975.975,0,0,0,.975-.975v-9.162A6.9,6.9,0,0,0,178.817,163.1Zm3.769,14.975h-17.8v-8.187a4.944,4.944,0,0,1,4.938-4.938h1.408a.975.975,0,0,0,.446-1.841,4.613,4.613,0,1,1,4.218,0,.975.975,0,0,0,.446,1.841h1.408a4.944,4.944,0,0,1,4.938,4.938Z" transform="translate(-113.971 -130.903)"/><path class="a" d="M53.484,107.854a6.563,6.563,0,1,0-10.266,0,6.9,6.9,0,0,0-5.718,6.788V123.8a.975.975,0,1,0,1.949,0v-9.162a4.944,4.944,0,0,1,4.938-4.938H45.8a.975.975,0,0,0,.447-1.841,4.614,4.614,0,1,1,4.218,0,.975.975,0,0,0,.446,1.841h1.408a4.944,4.944,0,0,1,4.938,4.938V123.8a.975.975,0,1,0,1.949,0v-9.162A6.9,6.9,0,0,0,53.484,107.854Z" transform="translate(-37.5 -97.196)"/><path class="a" d="M116.151,107.855a6.563,6.563,0,1,0-10.266,0,6.9,6.9,0,0,0-5.718,6.788V123.8a.975.975,0,1,0,1.949,0v-9.162a4.944,4.944,0,0,1,4.938-4.938h1.408a.975.975,0,0,0,.446-1.841,4.613,4.613,0,1,1,4.218,0,.975.975,0,0,0,.446,1.841h1.408a4.944,4.944,0,0,1,4.938,4.938V123.8a.975.975,0,1,0,1.949,0v-9.162A6.9,6.9,0,0,0,116.151,107.855Z" transform="translate(-75.736 -97.197)"/><path class="a" d="M178.817,107.854a6.563,6.563,0,1,0-10.266,0,6.9,6.9,0,0,0-5.718,6.788V123.8a.975.975,0,1,0,1.949,0v-9.162a4.944,4.944,0,0,1,4.938-4.938h1.408a.975.975,0,0,0,.446-1.841,4.613,4.613,0,1,1,4.218,0,.975.975,0,0,0,.447,1.841h1.408a4.944,4.944,0,0,1,4.938,4.938V123.8a.975.975,0,1,0,1.949,0v-9.162A6.9,6.9,0,0,0,178.817,107.854Z" transform="translate(-113.971 -97.196)"/></g></svg>